<?xml version="1.0" encoding="UTF-8"?>
<svg id="Layer_1" data-name="Layer 1" xmlns="http://www.w3.org/2000/svg" xmlns:xlink="http://www.w3.org/1999/xlink" viewBox="0 0 275.66 326.03">
  <defs>
    <style>
      .cls-1 {
        fill: none;
      }

      .cls-2 {
        fill: #fdb515;
      }

      .cls-3 {
        fill: #00a651;
      }

      .cls-4 {
        fill: url(#linear-gradient);
      }

      .cls-5 {
        fill: #016938;
      }

      .cls-6 {
        clip-path: url(#clippath);
      }

      .cls-7 {
        fill: #2e3790;
      }
    </style>
    <clipPath id="clippath">
      <path class="cls-1" d="M137.65,76.96h-.39c-67.92.18-122.83,53.81-122.64,119.81.07,36.61,17.54,70.59,44.37,92.43,15.39,12.56,24.07,11.99,32.33,7.62,5.41-2.87,22.46-5.34,30.32-2.13,8.29,3.33,9.63,3.25,11.12,3.17.61-.03,1.24-.07,2.4.13.67.12,1.49-.06,2.33-.26,1.12-.25,2.26-.5,3.1,0,8.08,4.71,27.88-2.1,41.33-2.4,5.9-.13,3.21,2.35,7.53,3.04,10.28,1.55,13.4-.59,17.88-3.55,3.16-2.11,6.2-4.39,9.12-6.78,27.06-21.98,44.2-55.02,44.1-91.96-.15-65.84-55.14-119.11-122.89-119.11h-.01Z"/>
    </clipPath>
    <linearGradient id="linear-gradient" x1="-155.97" y1="590.48" x2="-151.41" y2="590.48" gradientTransform="translate(25460.27 -6416.42) rotate(-90) scale(42.89 -42.89)" gradientUnits="userSpaceOnUse">
      <stop offset="0" stop-color="#fff"/>
      <stop offset=".11" stop-color="#fff"/>
      <stop offset=".12" stop-color="#fff"/>
      <stop offset=".23" stop-color="#fcfdfe"/>
      <stop offset=".31" stop-color="#f3fafe"/>
      <stop offset=".33" stop-color="#eff9fe"/>
      <stop offset="1" stop-color="#15bef0"/>
    </linearGradient>
  </defs>
  <g class="cls-6">
    <rect class="cls-4" x="14.03" y="76.53" width="247.01" height="226.32" transform="translate(-.66 .48) rotate(-.2)"/>
  </g>
  <path class="cls-3" d="M140.95,319.44s7.36,6.43,14.99,6.23c8.85-.26,15.58-10.83,26.28-8.6-18.17-12.16-22.78-3.75-27.81-1.04-5.82,3.14-10.86,3.76-13.47,3.42M135.31,319.73s-7.33,6.47-14.98,6.3c-8.86-.18-15.65-10.72-26.36-8.45,18.12-12.22,22.78-3.86,27.83-1.18,5.78,3.09,10.87,3.67,13.51,3.33M88.23,319.54s-7.32,6.48-14.96,6.31c-8.9-.16-15.63-10.73-26.36-8.49,18.12-12.23,22.78-3.83,27.8-1.14,5.83,3.1,10.89,3.65,13.53,3.32M187.98,318.98s7.35,6.45,15.01,6.24c8.88-.24,15.6-10.85,26.3-8.62-18.19-12.14-22.78-3.75-27.83-1.02-5.79,3.13-10.83,3.71-13.47,3.4"/>
  <path class="cls-2" d="M70.59,309.43s7.38,6.44,15.07,6.22c8.85-.26,15.54-10.8,26.27-8.61-18.19-12.16-22.76-3.73-27.82-1.04-5.8,3.13-10.88,3.76-13.52,3.43M205.77,308.78s-7.35,6.48-15.03,6.32c-8.89-.23-15.62-10.76-26.33-8.43,18.11-12.27,22.77-3.92,27.83-1.21,5.79,3.08,10.88,3.67,13.53,3.32M253.02,308.58s-7.35,6.52-15.03,6.29c-8.86-.14-15.58-10.69-26.35-8.43,18.18-12.23,22.83-3.82,27.85-1.15,5.81,3.07,10.88,3.62,13.53,3.29M116.59,309.11s9.09,6.31,14.65,6.27c5.55,0,7.19-1.47,7.19-1.47,0,0,3.3,1.6,6.58,1.38,3.3-.2,9.69-2.1,14.68-6.62-3.95.68-6.97.72-10.06-1.03-3.07-1.71-9.73-6.45-11.11-6.45-1.37.03-9.92,5.66-11.25,6.37-1.28.67-6.11,2.38-10.68,1.55M23.38,309.54s7.33,6.43,14.97,6.2c8.91-.27,15.58-10.82,26.3-8.61-18.17-12.14-22.73-3.73-27.78-1.02-5.86,3.13-10.88,3.73-13.48,3.44"/>
  <path class="cls-7" d="M161.22,289.8v12.68c6.42-2.86,12.28-8.86,20.69-7.17-10.57-7.06-16.58-7.18-20.69-5.5"/>
  <path class="cls-7" d="M59.3,290.16c-3.3.78-7.17,2.62-12.07,5.92,10.72-2.25,17.43,8.28,26.37,8.47,7.62.17,14.95-6.29,14.95-6.29-2.67.31-7.7-.27-13.52-3.35-3.19-1.71-6.18-5.65-12.55-5.28-.21-.14-1.74.09-3.17.53"/>
  <path class="cls-7" d="M121.64,294.69c-2.12-1.17-4.2-3.27-7.17-4.45v12.68c1.82.79,3.72,1.32,5.73,1.35,7.63.2,14.96-6.29,14.96-6.29-2.59.34-7.74-.21-13.52-3.3"/>
  <path class="cls-7" d="M27.82,294.35c-5.07-2.69-9.71-11.08-27.82,1.18,10.74-2.26,17.46,8.24,26.35,8.44.5,0,1.05,0,1.54-.03v-9.56s-.07-.02-.07-.02"/>
  <path class="cls-7" d="M27.9,294.37v9.57c7.05-.65,13.44-6.27,13.44-6.27-2.6.32-7.62-.22-13.44-3.3"/>
  <path class="cls-7" d="M93.83,295.85c8.33-1.77,14.27,4.19,20.65,7.07v-12.68c-4.15-1.65-10.11-1.52-20.65,5.61"/>
  <path class="cls-7" d="M154.08,294.27c-5.77,3.15-10.91,3.74-13.51,3.44,0,0,7.35,6.42,15.03,6.2,1.93-.03,3.82-.62,5.61-1.43v-12.68c-2.96,1.19-5.05,3.34-7.13,4.47"/>
  <path class="cls-7" d="M214.62,289.1c-7.33-1.09-10.52,3.33-13.93,5.17-5.87,3.14-10.9,3.72-13.52,3.45,0,0,7.35,6.41,15.02,6.18,8.91-.23,15.55-10.77,26.24-8.62-4.27-2.86-7.86-4.58-10.83-5.52-1.22-.47-2.85-.77-3-.67"/>
  <path class="cls-7" d="M247.85,293.4c-5.82,3.18-10.84,3.73-13.46,3.48,0,0,6.78,5.88,14.07,6.17l-.04-9.93c-.17.11-.36.21-.57.28"/>
  <path class="cls-7" d="M248.43,293.12l.03,9.93c.31.03.62.03.91.03,8.97-.3,15.6-10.85,26.29-8.63-17.51-11.67-22.39-4.34-27.23-1.33"/>
  <path class="cls-7" d="M93.07,235.76l.31-7.49s6.43-3.61,11.14,1.81c4.74,5.44,4.04,11.71,4.04,11.71,0,0-1.36,14.78-15.41,15.5-14.16.75-18.2-11.14-18.01-19.78.13-8.67,8.64-20.95,19.07-33.74,0,0,2.75-3.21-8.93-1.1l2.3-6.69s14.73-3.43,11.64,3.05c-3.09,6.46-23.43,28.26-20.24,37.73,3.14,9.56,6.45,13.65,16.04,14.1,9.59.45,11.09-10.24,11.09-10.24,0,0-1.04-6.8-8.19-6.79-.29.36-3.63-.66-4.86,1.94"/>
  <path class="cls-7" d="M111.11,214.27s-2.66-18.01.08-23.59c0,0,4.26,4.99,7.94,13.02,3.58,8.07,5.8,19.06,3.84,31.45-1.66,10.55-4.47,18.04-12.78,23.94-6.28,4.37-15.28,5.7-24.01,5.19,0,0,25.84-7.17,33.08-26.57,2.54-6.87,1.92-12.81-.85-23.1-2.64-9.86-5.78-12.08-5.78-12.08v6.21l.04,6.19-1.56-.67Z"/>
  <polygon class="cls-7" points="112.51 224.96 114.66 233.1 115.16 227 114.09 224.96 112.51 224.96"/>
  <path class="cls-7" d="M152.05,235.08s-1.42.97-2.98,0c0,0-2.44,0-7.63,10.55-5.13,10.53-13.45,19.22-31.07,15.9,0,0,12.68-3.75,19.29-9.09,4.5-3.69,8.6-10.87,12.19-15.76,3.56-4.88,6.76-10.44,10.2-10.11v8.51Z"/>
  <polygon class="cls-7" points="135.87 226.77 140.19 220.99 146.25 225.4 141.59 230.99 135.87 226.77"/>
  <path class="cls-7" d="M143.49,252.03s2.14-3.51,5.64-4.22c3.47-.71,2.92,10.86-6.1,15.99l.15-1.19c.09-.37,6.72-4.97,5.35-10.02-1.06-2.19-3.68-.08-4.73.42-1.05.56-.31-.98-.31-.98"/>
  <path class="cls-7" d="M178.67,229.91c2.64-.15,6.48.3,12.19,1.64,0,0,5.38.5,9.01-2.2,0,0,.62,1.46.7,3.78v.72c0,1.22-.15,2.55-.67,3.96,0,0-1.04,1.22-5.03,1.9-4.01.68-12.01,12.59-15.63,15.99-.15.16-.35.33-.49.49l-.04-9.38c2.29-2.3,4.42-4.71,5.34-5.53,1.9-1.75-.15-1.88-.15-1.88-1.6-.14-3.06-.92-5.18-.54l-.05-8.96ZM170.02,251.8s.13-13.38,1.84-16.95c1.14-2.31,1.95-4.61,6.81-4.94l.05,8.96c-.91.17-1.94.53-3.2,1.22-4.14,2.37-2.76,11.39-2.76,11.39,1.43-.32,3.71-2.43,5.96-4.66l.04,9.38c-3.32,3.01-5.24,3.95-6.39,3.95l-.21,2.1c-.35.49-.59.77-.9,1.25-.49-.89-.24-2-.42-3.03,0,0-12.44,1.76-14.27-17.97-1.76-19.67-1.58-25.82-1.58-25.82,0,0,3.04.26,4.16-.85,0,0,1.23,27.34,2.97,30.74,1.8,3.42,4.97,5.59,7.91,5.23"/>
  <polygon class="cls-7" points="182.23 257.89 186.88 252.12 195.11 254.33 189.72 259.92 182.23 257.89"/>
  <g>
    <path class="cls-7" d="M145.95,16.23l-2.11,8.16s2.26,1.8,3.22,4.09c1.76,4.3,4.43,24.69,7.46,178.49.66.11,1.24.15,1.95.1.63-.07,1.4-.26,2.33-.69.04,0-.31-45.21-2.13-91.6-1.73-46.43-4.48-93.99-10.71-98.55"/>
    <path class="cls-5" d="M201.54,194.71c2.18-.1,5.44.33,10.92,1.44,0,0,6.64.82,9.43-2.18,0,0,1.45,1.08,1.45,1.81s-.68,7.64-1.45,8.13c-.73.48-3.74-.72-8.56,3.95-3.21,3.01-7.59,9.18-11.74,13.23l-.02-9.51c.33-.31.68-.6.99-.9,2.49-2.12,5.3-6.24,5.3-6.24-1.82-.7-3.77-1.24-6.3-.73l-.03-8.99ZM178.81,207.96c-6.26-103.04-8.92-181.69-12.75-195.7-.64-2.37-3.73-4.08-3.73-4.08l2.15-8.19c6.21,4.58,10.46,46.44,12.75,96.05.29,6.05,5.02,93.2,5.91,102.41.17,2.13.42,19.71,10.1,18.11,0,0-.98-14.5,2.13-17.79,2.01-2.1,2.39-3.81,6.17-4.08l.03,8.99c-.98.26-2.06.63-3.24,1.23-4.31,2.11-2.75,11.08-2.75,11.08,1.56.31,3.94-2.42,6-4.44l.02,9.51c-2.07,2.06-4.15,3.59-5.91,3.82l-.14,1.71-.9,1.77s-.61-1.67-.48-3.08c-8.8,1.7-15.2-10.39-15.34-17.33"/>
  </g>
  <path class="cls-5" d="M205.84,223.08l4.31-5.18,8.67,1.68-5.82,5.49s-6.11-1.98-7.17-1.98"/>
  <path class="cls-5" d="M194.55,169.88l-1.4,3.99s8.26,3.23,4.75,17.43c0,0,5.43-5.95,2.02-15.01-2.53-5.22-5.13-5.92-5.36-6.41"/>
  <path class="cls-5" d="M165.27,201.08s-3.66-.48-4.65-1.72l.3-6.23s7.41,2.96,14.52-1.07l.26,7.27s-4.59.5-6.82,4c-2.31,3.49-8.43,11.97-12.86,12.2-4.38.26-6.79-2-6.79-2,0,0-12.63,8.79-24.53,10.29,0,0-.23-3.96-.79-6.13,0,0,9.35-.62,22.11-7.26,0,0,1.75-2.57-1.81-2.24l-3.54.02s-1.93-8.3,2.13-8.78c4.13-.53,9.49-.88,8.94,2.91,0,0,.39,3.91.14,5.43,1.98,1.96,9.4.96,13.37-6.69"/>
  <path class="cls-5" d="M118.13,217.57s1.62,4.55,1.3,6.47c0,0-11.25.84-29.26-10.01,1.29-1.48,2.26-3.2,4.04-5.47,0,0,14.07,8.81,23.92,9.02"/>
  <path class="cls-5" d="M83.78,202.15l-.07,1.4,1.8-.08,5.36,3.29s-3.29,4.12-3.97,5.08c0,0-5.04-3.5-6.28-3.98-1.28-.5-2.8-1.61-3.72,1.24-.97,2.87-3.22,13.99-9.11,13.89-8.45-.04-9.02-9.79-8.76-12.94.28-3.11,1.5-10.41,9.93-16.87,4.26-3.26,9.1-5.46,12.04-8.85,2.91-3.32,5.89-5.74,6.52-7.32,0,0,1.27-2.08.84.8,0,0-5.22,8.58-14.33,14.27-9.62,6.02-11.91,13.76-12.14,18.4-.23,4.2,1,9.04,4.45,9.31,4.37.32,6.71-11.61,8.07-14.41,1.34-2.85,3.11-6.85,7.16-4.82,1.54.82,2.2,1.57,2.2,1.57"/>
  <polygon class="cls-5" points="58.17 181.58 62.2 175.7 70.78 178.07 75.51 172.02 84.42 174.72 79.95 180.28 71.87 178.15 66.93 184.01 58.17 181.58"/>
  <path class="cls-5" d="M105.58,171.25c.17.22.34.38.5.54,1.14,1.11,3.8,4.36,2.05,7.71-1.1,2.17-1.95,2.48-2.53,2.31v-3.03c.48.18.85.22,1.11.26.38.05.97-1.59-1.11-4.05l-.02.04v-3.78ZM104.28,169.61c.41.57.89,1.16,1.3,1.64v3.78c-.21.15-.95.66-1.27,1.4l-.04-1.06c.23-.37.16-.59,0-.76v-5ZM105.59,181.81c-.32-.07-.58-.33-.77-.44-.14-.09-.33-.22-.52-.36v-3.22c.23.53.78.83,1.28,1v3.03ZM102.42,168.61l.44-1.04s.59.98,1.41,2.04v5c-.35-.3-1.03-.36-1.41-.46-.16,0-.27-.03-.43-.03v-5.51ZM104.31,181c-.65-.46-1.45-1.01-1.69-.79-.02,0-.07.07-.13.15v-3.81c.13.09.31.09.31.09.79-.52,1.29-.99,1.48-1.28l.04,1.06c-.16.3-.23.63-.16.98,0,.17.05.26.16.38v3.22ZM83.53,194.96s16.13-11.86,17.48-15.55c0,0,1.32.31-1.35-2.15-2.75-2.48.65-5.62,2.76-5.41,0,0,.07-.88-.64-1.53l.64-1.7v5.51c-.82-.07-1.92.11-1.92.91,0,.66,1.33,1.28,1.99,1.53v3.81c-1.09,1.33-7.46,10.18-16.87,14.77-1.17.12-2.09-.19-2.09-.19"/>
  <path class="cls-5" d="M106.39,191.87c-.87.26,7.41-6.69,27.53-8.74l.91-3.37s-24.43,4.76-27.99,8.95c-.15,1.23-.46,3.16-.46,3.16"/>
  <path class="cls-5" d="M124.32,200.54s-1.44-.97-1.34-1.56c.08-.57.75-3.97,1.5-3.97s1.76.67,2.9,2.15c1.07,1.46,1.18,2.8,2.19,3.2,0,0,1.87-7.37,4.78-7.52,2.85-.17,3.93,3.17,3.93,3.17l-.73,3.34s-.85-2.99-2.83-3.28c-2.45-.4-5.15,6.84-5.65,8.91,0,0-2.69-5.75-3.82-6.1-1.11-.32-.93,1.65-.93,1.65"/>
  <path class="cls-5" d="M147.82,190.99s-2.95,2.81-3.89,1.67c-.92-1.13-2.12-4.93,1.4-9.36.7-1.26-.15-.84-.15-.84,0,0-4.75,4.13-3.59,10.94,1.15,6.79,5.66.05,6.03-.74.45-.85.42-1.67.2-1.67"/>
  <path class="cls-7" d="M171.02,206.98l-.86,3.32s7.79,4.8,4.42,18.47c0,0,3.82-4.97,2.78-11.36-1.12-6.4-5.6-9.71-6.34-10.43"/>
  <path class="cls-2" d="M142.84,26.64s-8.63,3.99-2.29,14.39c0,0-12.22,62.92-56.33,116.47,0,0,40.4,2.82,64.72,24.51l-1.38-36.77s-10.37.04-10.46-9.31c0-9.37,9.94-9.69,9.94-9.69l-4.2-99.6Z"/>
  <path class="cls-5" d="M37.22,159.18l4.29-.02c.38,0,.69-.17.93-.47.21-.31.41-.95.54-1.97h.94l-.27,5.1h-8.4s0-.89,0-.89c.41-.83,1.29-2.09,2.68-3.76,1.16-1.53,1.89-2.71,2.25-3.42.47-1.04.67-2.06.67-3.11,0-.88-.13-1.56-.49-2.02-.36-.48-.84-.7-1.45-.67-.6,0-1.14.17-1.52.56-.41.35-.61.76-.61,1.15,0,.19.1.31.15.4.06.1.29.19.64.31.78.24,1.12.67,1.12,1.4,0,.49-.16.89-.43,1.19-.27.35-.64.49-1.07.49-.47,0-.78-.23-1.13-.67-.29-.43-.45-1.04-.45-1.86,0-1.08.31-1.99.93-2.75.75-.89,1.83-1.39,3.16-1.39,1.21,0,2.15.41,2.89,1.16.72.76,1.06,1.66,1.12,2.77,0,.62-.09,1.16-.29,1.63-.22.67-.52,1.29-.94,1.8-.44.53-1.12,1.17-2.03,2.02-1.06.85-1.76,1.45-2.14,1.82-.38.36-.76.75-1.09,1.21"/>
  <path class="cls-5" d="M50.48,146.75c.83,0,1.51.29,2.15.81.64.57,1.19,1.43,1.65,2.67.47,1.24.62,2.66.62,4.22.03,1.67-.15,3.12-.62,4.27-.37,1.24-.92,2.1-1.61,2.66-.68.53-1.35.79-2.18.79v-1.02c.28,0,.5-.12.73-.42.23-.28.42-.88.62-1.81.19-1.24.32-2.59.26-4.04,0-3.08-.19-5.1-.56-6.09-.22-.72-.62-1.1-1.08-1.1v-.95h.02ZM50.48,162.18h-.02c-1.23.02-2.22-.61-3.02-1.79-.95-1.5-1.44-3.43-1.48-5.8,0-1.7.21-3.11.64-4.34.42-1.22.95-2.12,1.64-2.63.66-.56,1.39-.85,2.22-.88v.95c-.58.06-.98.57-1.26,1.56-.26,1.02-.41,2.96-.41,5.88.05,2.4.23,4.11.6,5.14.25.6.62.88,1.07.88h.02v1.02Z"/>
  <path class="cls-5" d="M61.37,146.74c.81,0,1.54.27,2.19.8.65.57,1.19,1.45,1.59,2.65.46,1.21.65,2.65.65,4.24.05,1.64-.16,3.08-.62,4.26-.44,1.23-.98,2.1-1.6,2.66-.68.53-1.42.79-2.23.79v-1c.29,0,.55-.19.78-.45.21-.28.45-.88.57-1.81.2-1.22.31-2.58.26-4.03,0-3.06-.14-5.1-.51-6.08-.25-.73-.63-1.08-1.09-1.08h-.04v-.96h.04ZM61.37,162.15h0c-1.2,0-2.21-.57-3-1.76-.96-1.53-1.52-3.47-1.52-5.87,0-1.66.25-3.09.64-4.29.47-1.23.98-2.12,1.66-2.64.61-.57,1.4-.83,2.18-.84v.96c-.53,0-.94.52-1.21,1.52-.28,1.01-.44,2.98-.44,5.87.06,2.42.26,4.11.65,5.11.26.62.58.95,1.04.95v1Z"/>
  <path class="cls-5" d="M72.58,152.86c.3-.11.61-.16.96-.16.81,0,1.66.36,2.36,1.04.69.69,1.02,1.81,1.05,3.21,0,1.56-.4,2.82-1.21,3.75-.77.95-1.84,1.43-3.09,1.43h-.03v-.99c.49,0,.89-.27,1.15-.82.39-.54.52-1.49.52-2.85,0-1.25-.19-2.16-.47-2.64-.28-.5-.67-.72-1.14-.72h-.07l-.03-1.24ZM72.54,146.78c.24-.03.52-.07.76-.07.98,0,1.71.27,2.28.76.55.54.83,1.18.83,1.88,0,.5-.14.9-.36,1.24-.33.31-.62.49-1.04.49-.35,0-.67-.14-.92-.42-.24-.3-.34-.61-.34-1.06,0-.31.05-.6.22-.93.05-.17.11-.35.11-.43,0-.17-.06-.3-.21-.43-.13-.11-.27-.15-.59-.15-.25,0-.52.04-.76.18v-1.06ZM70.92,154.16c.39-.51.82-.87,1.24-1.1.16-.06.27-.12.42-.19v1.24c-.42.05-.8.33-1.11.86-.43.58-.55,1.39-.55,2.5,0,1.21.17,2.19.59,2.93.26.49.65.75,1.1.75v.99c-1.34-.02-2.4-.56-3.22-1.66-.91-1.32-1.38-3.13-1.4-5.39,0-2.56.56-4.67,1.65-6.24.83-1.15,1.83-1.86,2.9-2.05v1.06c-.39.23-.69.65-.94,1.31-.52,1.19-.72,2.88-.68,5"/>
  <path class="cls-5" d="M205.39,157.82c0,.58-.06,1.29-.18,1.89-.03.26-.13.47-.13.54,0,.12-.08.22-.08.37-.03.21-.05.37-.14.51-.08.13-.12.29-.24.5l-.13.18c-.09.08-.16.1-.24.1l-.06-.02-.08-.11-.52-2.18-.5-1.76-.22-.93-.2-.62c-.32-1.06-.75-1.99-1.21-2.79l-.7-1.35c-.24-.44-.57-.87-.78-1.25l.3-.65.48-.76c.51-.95.97-1.54,1.22-1.72.3.26.71,1.05,1.39,2.34.42.9.86,2.19,1.39,3.87.2.74.4,1.43.49,2.06l.08.9.06.89Z"/>
  <path class="cls-5" d="M216.36,159.85l-1.25,1.04c-.78.6-1.28,1-1.6,1.17l-2.08-.93c-.97-.54-1.63-1.03-2.06-1.43-.22-.24-.45-.5-.55-.77-.13-.26-.21-.52-.21-.79v-.38c.08-.11.13-.2.21-.31.26-.33.79-.89,1.55-1.65l.74-.64.56-.57-1.45-.9c-.37-.17-.83-.57-1.29-1.17l-.15-.43.03-.29.1-.19.18-.22.15-.23.93-.91.52-.45.7-.56.69-.48.67-.51.62-.44.63-.38c.09,0,.13.02.16.06l.05.25v.34c0,.07,0,.12-.05.12l-.07.43c-.12.39-.13.63-.17.67-.16.21-.55.5-1.13.75l-.88.43c0,.21.39.56,1.2.99l1.79,1c.23.18.37.36.37.62,0,.19-.07.38-.31.58l-.56.62-.45.48-1.54,1.58-.12.31c0,.12.07.26.15.33l2.36,1.63c.89.58,1.38,1,1.57,1.22"/>
  <path class="cls-5" d="M227.09,148.96v.43c0,.23,0,.34-.03.44l-.05.31-.05.3c0,.05,0,.18-.05.27l-.13.28c-.16.62-.6,1.2-1.22,1.75,0,.07-.26.23-.71.51-.34.1-.68.13-.99.13h-.3l.14.35.26.61c.11.29.14.59.22.87.18.53.24,1.19.24,1.98,0,1.69-.26,3.11-.72,4.25l-.15.19s-.13.04-.21.02l-.56-1.82-.42-1.35-.45-1.42c-.35-1.1-.78-2-1.31-2.78-.11-.33-.26-.64-.45-.89l-.55-.72-.16-.3-.36-.51-.78-.9.78-1.47c.52-1,.92-1.59,1.14-1.7l1.45,1.42c.62.47,1.15.73,1.62.73.76,0,1.3-.09,1.6-.16.39-.28.96-.88,1.6-1.77.1-.11.17-.18.3-.18.09,0,.18.05.24.07l.08.31v.76Z"/>
  <path class="cls-5" d="M240.92,158.9c0,.21-.3.74-.92,1.58-.62.86-1.05,1.35-1.2,1.42l-.56-.48-.21-.27-.24-.26-.59-1.14-.31-.83-.31-1.32-.21-1.32c-.06-.5-.1-.95-.1-1.41l-.09-3.42c-.24.34-.62.63-1.13.91l-.33.16-.43.15-.37.06-.32.02c-.62,0-1.14-.09-1.65-.25-.5-.18-.87-.57-1.31-1.18l-.02-.22-.09-.4-.04-.98v-1.11l.09-.76h.1s.24,0,.24,0c.31.25.81.43,1.42.66l.4.05.64.1.66.1h.37c.93,0,1.57-.1,2.01-.18.37-.06.77-.22,1.09-.45l.27.31.07,1.12.09,1.05c0,.44.04.94.13,1.52l.25,1.48c.22,1.23.55,2.16.85,2.74l.35.57.41.72c.23.26.54.66.99,1.26"/>
  <path class="cls-5" d="M62.9,269.21l5.26-.02v.98h-.65c-.22,0-.41.1-.51.25-.08.13-.14.4-.14.68v9.59c-.01,1.3-.31,2.39-.91,3.28-.69.83-1.57,1.27-2.71,1.27-1,0-1.86-.38-2.46-1.2-.64-.78-.97-1.72-1.01-2.81,0-.83.18-1.55.53-2.03.28-.52.69-.78,1.13-.78.41,0,.75.16,1.04.57.25.39.42.84.42,1.44,0,.56-.13.96-.31,1.32-.14.3-.45.51-.68.51-.09,0-.15-.04-.3-.13-.17,0-.25-.01-.31-.01-.13,0-.21.01-.25.1-.05.07-.05.19-.05.36,0,.41.14.77.36,1.07.39.38.83.59,1.37.59.61,0,1.09-.31,1.4-.88.33-.52.46-1.35.46-2.45l-.04-9.79c0-.29-.06-.51-.13-.67-.07-.16-.23-.24-.47-.24h-1.04v-.98Z"/>
  <path class="cls-5" d="M74.69,268.8l4.09,14.09c.06.41.21.66.37.81.08.14.28.21.47.21h.43v.99l-5.04.04v-1.02h.47c.39,0,.69-.08.77-.17.13-.14.22-.3.22-.48s-.04-.36-.09-.55l-.83-2.91h-1.97v-1.04h1.67l-1.67-5.99-.06.07-.02-2.8.36-1.23h.82ZM73.6,279.8h-2l-.38,1.31c-.16.58-.27,1-.23,1.26,0,.46.08.84.3,1.15.24.26.57.4,1.01.4h.3v1.02h-4.07v-1.01h.24c.27,0,.54-.09.71-.33.29-.38.48-.78.64-1.33l3.4-12.23.02,2.8-1.68,5.92h1.75v1.04Z"/>
  <path class="cls-5" d="M81.16,269.14h7.82v.97l-5.92,13.8h2.69c.52,0,.89-.17,1.28-.5.29-.3.61-.81.83-1.48.29-.69.49-1.7.66-2.99h.63l-.15,5.93-8.45.02v-.99l5.84-13.8-1.97.03c-.85,0-1.5.34-2,1-.41.69-.77,1.85-.93,3.49h-.6s.24-5.49.24-5.49Z"/>
  <path class="cls-5" d="M95.74,268.75l4.05,14.07c.1.42.22.67.4.82.11.15.31.21.51.21h.4v.99l-4.97.03v-.98h.41c.36-.05.67-.1.81-.18.11-.16.15-.3.15-.49,0-.21,0-.33-.08-.54l-.83-2.91h-1.99v-1.06h1.72l-1.72-5.96v.02-2.75l.39-1.26h.76ZM94.59,279.76h-2l-.36,1.31c-.15.57-.24,1-.24,1.25,0,.46.12.83.35,1.13.22.27.57.44.95.44h.31v.98h-4.02s0-.96,0-.96h.21c.28,0,.52-.11.75-.38.22-.35.47-.76.59-1.3l3.45-12.21v2.75l-1.68,5.95h1.68v1.06Z"/>
  <path class="cls-5" d="M101.47,269.11h3.33l5.77,10.77v-7.33c0-.73-.18-1.32-.43-1.74-.26-.45-.65-.72-1.19-.79v-.93l3.91-.03v.96c-.55.11-.97.39-1.19.76-.24.4-.34.96-.34,1.77l.04,12.25h-.86l-6.57-12.41.05,8.64c0,1,.15,1.69.42,2.16.32.42.68.66,1.14.66h.17v.99h-4.3v-.99h.27c.47,0,.81-.24,1.08-.76.29-.51.46-1.09.46-1.9l-.04-10.19c-.34-.62-.73-.92-1.27-.92l-.46.03v-.98Z"/>
  <path class="cls-5" d="M117.98,269.06l5.32-.02v.98h-1.11c-.16,0-.22.11-.36.25-.05.16-.09.39-.09.68v8.73c0,1.23.23,2.17.67,2.8.45.67,1.07.99,1.83.99.52,0,1.1-.2,1.57-.54.33-.25.62-.72.81-1.34.21-.6.28-1.4.28-2.34v-6.66c0-.85-.11-1.49-.38-1.94-.26-.38-.59-.63-1.04-.63h-.14v-.98l4.09-.03v.98h-.3c-.42,0-.77.24-.99.72-.24.48-.31,1.05-.31,1.76v7.27c0,1.62-.3,2.9-1.07,3.87-.73.98-1.75,1.46-2.99,1.46-.91,0-1.72-.19-2.46-.63-.66-.42-1.11-1-1.41-1.72-.28-.69-.44-1.62-.44-2.75l-.03-8.88c0-.41-.03-.67-.15-.83-.07-.13-.3-.24-.58-.24h-.71v-.96Z"/>
  <path class="cls-5" d="M130.26,269.01h3.35l5.81,10.76v-7.3c-.05-.73-.21-1.34-.47-1.76-.29-.45-.65-.69-1.15-.72v-.98h3.86v.95c-.55.1-.93.35-1.15.72-.24.41-.37,1-.34,1.79l.03,12.24h-.85l-6.62-12.37.06,8.58c0,1.02.16,1.73.46,2.16.29.42.68.68,1.09.68h.21v.99h-4.29s0-.97,0-.97h.31c.39,0,.77-.27,1.03-.78.28-.47.42-1.11.42-1.89l-.04-10.2c-.26-.6-.74-.91-1.21-.91h-.52v-.98Z"/>
  <path class="cls-5" d="M142.57,269.01l5.46-.02v.95h-.99c-.22,0-.35.08-.46.22-.13.1-.19.3-.19.55l.06,12.17c0,.27.1.46.16.59.13.16.35.26.55.26h.89v.97h-5.42v-.97h.75c.33,0,.57-.11.66-.23.13-.16.22-.35.22-.62l-.09-12.03c0-.32-.05-.54-.16-.68-.07-.15-.27-.23-.5-.21h-.96v-.95Z"/>
  <path class="cls-5" d="M148.43,268.99l5.18-.03v.97h-.57c-.38,0-.62.08-.75.19-.15.15-.2.26-.2.44,0,.16.05.48.16.86l2.71,9.49,2.17-8.1c.15-.56.2-1.09.2-1.52s-.08-.8-.26-1.03c-.16-.2-.43-.33-.82-.33h-.49v-.98h4.18v.96h-.32c-.31,0-.54.1-.76.4-.19.28-.39.79-.53,1.5l-3.63,13.22h-.89l-3.92-13.9c-.12-.47-.28-.79-.41-.95-.17-.15-.49-.24-.86-.24h-.18s0-.94,0-.94Z"/>
  <path class="cls-5" d="M160.31,268.95l9.27-.04.19,5.5h-.61c-.15-1.3-.34-2.23-.52-2.81-.31-.57-.54-1.01-.93-1.27-.36-.28-.84-.46-1.44-.46h-1.47c-.22,0-.37.08-.45.21-.12.18-.15.33-.15.56v5.47h.48c.57,0,1.03-.24,1.33-.72.32-.49.52-1.3.55-2.33h.67v7.31h-.67c0-1.24-.15-2.07-.55-2.58-.3-.48-.75-.72-1.4-.72h-.41v5.82c0,.23.06.43.15.49.19.19.38.29.69.29h1.3c.83,0,1.6-.43,2.13-1.3.54-.81.93-2.06,1.06-3.73h.62l-.12,5.97-9.69.05v-.99h.96c.24,0,.38-.08.46-.25.15-.18.18-.37.18-.64l-.02-12.13c0-.26-.08-.46-.17-.59-.14-.09-.31-.17-.61-.17h-.82v-.96Z"/>
  <path class="cls-5" d="M177.26,268.89h.12c.93,0,1.71.16,2.25.5.57.34,1.01.83,1.28,1.4.26.57.41,1.25.41,1.95,0,1.19-.33,2.13-1.01,2.83-.6.54-1.39.88-2.49,1.08.57.13.99.37,1.29.63.31.29.53.74.77,1.35.33.72.57,1.65.77,2.73.15.7.26,1.14.3,1.31.14.19.24.23.35.23.34,0,.49-.6.58-1.84h.6c-.03,1.31-.23,2.22-.57,2.83-.36.58-.84.88-1.5.88-.47,0-.82-.16-1.06-.41-.31-.31-.52-.68-.67-1.26-.06-.26-.17-1-.36-2.13-.2-1.32-.36-2.19-.5-2.65-.14-.42-.29-.76-.48-1l-.06-1.41c.47-.12.85-.4,1.13-.81.38-.47.52-1.24.52-2.3s-.11-1.77-.52-2.22c-.19-.33-.59-.57-1.13-.66v-1.04ZM171.84,268.92l5.41-.02v1.04c-.15-.05-.39-.05-.59-.05-.47,0-.77.08-.86.21-.13.17-.18.48-.18,1.01l.05,4.92h.86c.27,0,.5,0,.73-.1l.06,1.41-.06-.03c-.23-.19-.48-.31-.82-.31h-.77v5.8c0,.25.02.42.13.58.15.16.33.24.54.24h.91v1l-5.34.02v-.98h.81c.23,0,.38-.07.49-.26.05-.15.15-.4.15-.72v-11.85c0-.31-.09-.57-.15-.72-.16-.14-.26-.24-.44-.24h-.92v-.96Z"/>
  <path class="cls-5" d="M190.29,270.07l.65-1.41h.53l.09,5.42h-.68c-.33-1.56-.85-2.72-1.45-3.49-.62-.78-1.29-1.17-2.03-1.17-.67,0-1.15.23-1.56.74-.41.54-.6,1.14-.56,1.88,0,.44.06.85.22,1.17.13.35.38.66.77.86.33.28.95.55,1.82.83,1.09.32,1.76.57,2.15.86.6.38,1.12.96,1.45,1.62.31.69.46,1.51.46,2.49,0,1.42-.34,2.61-1.02,3.46-.81,1.06-1.82,1.61-3.04,1.61-1.11,0-2.14-.56-3.06-1.72l-.83,1.56h-.53v-5.84h.65c.64,3.34,1.93,4.96,3.82,4.96.8,0,1.42-.25,1.87-.79.42-.56.61-1.22.61-2.01,0-.57-.07-1.03-.29-1.4-.15-.39-.47-.7-.9-.93-.19-.09-.72-.32-1.63-.61-1.14-.37-1.97-.75-2.51-1.16-.47-.41-.89-.89-1.09-1.49-.26-.6-.38-1.31-.38-2.16,0-1.44.32-2.62,1.01-3.52.62-.93,1.52-1.37,2.59-1.37s1.99.55,2.88,1.62"/>
  <path class="cls-5" d="M193.38,268.86l5.48-.04v.98h-.98c-.24,0-.41.07-.49.21-.1.1-.16.29-.16.55l.06,12.18c0,.26.07.47.17.59.11.18.28.26.55.26h.88v.97l-5.51.03v-.98h.88c.26,0,.5-.09.56-.2.16-.19.23-.38.23-.67l-.07-12.03c0-.29-.03-.49-.16-.64-.11-.14-.27-.26-.47-.26h-.98v-.95Z"/>
  <path class="cls-5" d="M200.1,268.82h9.33s.26,5.95.26,5.95h-.64c-.15-1.27-.38-2.27-.63-2.96-.26-.75-.51-1.24-.81-1.54-.3-.31-.7-.46-1.09-.46-.23,0-.39.07-.45.21-.1.14-.15.33-.15.55l.03,12.17c0,.27.01.45.15.55.1.19.18.31.32.31h1.23v.94l-5.71.03v-.97h1.23c.13,0,.25-.08.38-.27.06-.13.15-.31.15-.56l-.07-12.11c0-.28-.05-.48-.15-.63-.09-.1-.22-.21-.48-.21-1.22,0-2.05,1.65-2.47,4.96l-.66.03.23-5.98Z"/>
  <path class="cls-5" d="M209.96,268.81l5.31-.03v.96h-.73c-.27,0-.45.06-.52.18-.1.09-.15.23-.15.37,0,.18.05.38.05.62l2.33,5.67,1.52-4.63c.11-.38.16-.72.16-1.04,0-.38-.05-.64-.22-.85-.16-.2-.44-.31-.78-.31h-.31v-.97h4.16v.97c-.51.03-.9.18-1.18.42-.29.25-.52.72-.76,1.29l-2.09,6.26.04,4.95c0,.3.08.48.15.65.07.13.27.21.51.21h1.12v.96l-5.84.05v-.99h1.09c.22,0,.42-.1.56-.22.03-.15.15-.36.15-.64v-4.4l-2.93-7.3c-.22-.47-.38-.78-.61-.98-.18-.14-.46-.24-.76-.24h-.24v-.96Z"/>
</svg>