<svg id="svg" version="1.1" xmlns="http://www.w3.org/2000/svg" xmlns:xlink="http://www.w3.org/1999/xlink" width="400" height="400" viewBox="0, 0, 400,400"><g id="svgg"><path id="path0" d="M116.759 158.261 L 112.222 159.793 112.222 161.193 C 112.222 162.933,112.075 162.937,117.855 161.029 L 122.593 159.466 122.593 158.066 C 122.593 156.303,122.559 156.304,116.759 158.261 M240.370 157.755 C 240.370 157.946,243.196 160.943,246.649 164.416 C 254.596 172.408,254.592 172.392,250.774 179.697 C 249.781 181.595,248.576 183.898,248.096 184.815 C 247.615 185.731,247.107 186.534,246.966 186.598 C 246.826 186.662,246.442 187.522,246.114 188.510 C 245.786 189.498,245.276 190.398,244.981 190.512 C 244.686 190.625,244.444 191.141,244.444 191.659 C 244.444 192.176,244.111 192.885,243.704 193.234 C 243.296 193.583,242.963 194.248,242.963 194.712 C 242.963 195.176,242.796 195.556,242.593 195.556 C 242.389 195.556,242.222 195.806,242.222 196.111 C 242.222 196.417,242.074 196.667,241.892 196.667 C 241.710 196.667,241.449 197.115,241.312 197.663 C 241.174 198.210,240.751 199.096,240.370 199.630 C 239.990 200.164,239.566 201.049,239.429 201.597 C 239.291 202.144,239.042 202.593,238.874 202.593 C 238.706 202.593,238.452 202.968,238.310 203.426 C 238.167 203.884,237.739 204.702,237.359 205.242 C 236.978 205.783,236.667 206.741,236.667 207.372 L 236.667 208.519 242.215 208.519 C 249.299 208.519,252.203 207.422,253.167 204.384 C 253.286 204.010,253.505 203.704,253.654 203.704 C 253.803 203.704,254.149 203.079,254.423 202.315 C 254.696 201.551,255.230 200.528,255.608 200.043 C 255.987 199.557,256.296 198.916,256.296 198.620 C 256.296 198.323,256.630 197.656,257.037 197.138 C 257.444 196.620,257.778 195.981,257.778 195.717 C 257.778 195.454,258.015 195.001,258.304 194.712 C 258.594 194.422,259.137 193.535,259.511 192.741 L 260.190 191.296 267.362 191.196 C 271.307 191.140,274.722 191.242,274.952 191.422 C 275.182 191.602,275.817 191.856,276.362 191.986 C 278.056 192.390,279.511 197.862,278.148 198.704 C 277.944 198.830,277.778 199.223,277.778 199.579 C 277.778 200.232,275.660 203.402,275.052 203.657 C 274.871 203.734,274.445 204.067,274.107 204.398 C 273.769 204.729,272.581 205.697,271.468 206.549 C 270.355 207.401,268.899 208.568,268.232 209.142 C 267.565 209.716,266.346 210.685,265.523 211.296 C 264.700 211.907,263.674 212.782,263.243 213.241 C 262.812 213.699,262.239 214.074,261.970 214.074 C 261.701 214.074,261.481 214.243,261.481 214.450 C 261.481 214.657,261.009 215.115,260.431 215.468 C 259.853 215.822,258.645 216.717,257.746 217.457 C 256.847 218.197,254.694 219.930,252.963 221.307 C 249.262 224.251,245.926 227.405,245.926 227.961 C 245.926 228.177,245.607 228.627,245.218 228.960 C 243.196 230.691,244.215 242.593,246.385 242.593 C 247.080 242.593,247.199 242.517,248.970 240.949 C 249.523 240.459,250.315 239.950,250.729 239.819 C 251.143 239.687,251.481 239.341,251.481 239.049 C 251.481 238.757,251.642 238.519,251.839 238.519 C 252.036 238.519,252.766 238.019,253.462 237.407 C 254.158 236.796,254.914 236.296,255.141 236.296 C 255.369 236.296,255.556 236.152,255.556 235.975 C 255.556 235.799,256.347 235.048,257.315 234.307 C 260.011 232.242,260.662 231.728,261.597 230.926 C 262.071 230.519,263.019 229.769,263.704 229.259 C 264.388 228.750,265.331 228.000,265.798 227.593 C 266.266 227.185,267.240 226.435,267.963 225.926 C 268.686 225.417,269.686 224.636,270.187 224.191 C 270.687 223.746,271.720 222.913,272.481 222.339 C 273.242 221.766,274.142 221.046,274.481 220.741 C 274.820 220.435,275.544 219.852,276.091 219.444 C 276.637 219.037,277.372 218.454,277.725 218.148 C 278.077 217.843,279.192 216.963,280.201 216.193 C 284.607 212.834,287.778 210.026,287.778 209.484 C 287.778 209.247,288.236 208.550,288.796 207.934 C 289.356 207.318,290.131 205.906,290.518 204.796 C 290.904 203.686,291.337 202.611,291.479 202.407 C 295.072 197.250,291.451 182.892,286.019 180.754 C 285.356 180.494,284.815 180.149,284.815 179.988 C 284.815 179.441,282.055 179.232,274.167 179.183 C 269.838 179.156,266.296 178.996,266.296 178.826 C 266.296 178.657,266.428 178.519,266.590 178.519 C 267.031 178.519,268.740 174.528,269.262 172.276 C 269.777 170.055,269.586 165.510,268.918 164.074 C 267.802 161.677,266.089 159.630,265.201 159.630 C 264.989 159.630,264.521 159.338,264.163 158.981 C 262.742 157.569,240.370 156.416,240.370 157.755 M163.056 164.187 L 158.519 165.719 158.519 167.119 C 158.519 168.859,158.371 168.863,164.152 166.955 L 168.889 165.392 168.889 163.992 C 168.889 162.229,168.855 162.230,163.056 164.187 M170.278 170.787 C 162.301 178.108,162.110 178.363,163.131 180.337 C 164.165 182.336,164.775 182.407,180.830 182.407 L 195.548 182.407 195.922 183.481 C 197.450 187.867,200.024 187.575,158.686 187.699 L 123.079 187.806 122.858 182.138 C 122.566 174.681,122.774 175.076,119.302 175.373 C 115.126 175.730,115.073 175.757,115.335 177.351 C 115.834 180.384,116.014 192.059,115.592 194.074 C 114.929 197.243,114.965 197.218,110.868 197.250 L 107.265 197.278 106.372 199.959 C 105.280 203.233,105.169 203.120,109.646 203.275 C 116.405 203.509,119.884 201.404,121.907 195.855 L 122.679 193.740 159.210 193.627 C 199.129 193.503,197.381 193.597,200.471 191.406 C 205.737 187.673,202.273 175.263,196.252 176.291 C 194.803 176.538,189.665 176.653,182.975 176.588 L 172.062 176.481 176.586 172.418 C 181.729 167.800,181.534 168.210,179.805 165.643 C 178.149 163.184,179.155 162.640,170.278 170.787 M214.907 166.410 L 210.370 167.941 210.370 169.341 C 210.370 171.081,210.223 171.085,216.004 169.177 L 220.741 167.614 220.741 166.214 C 220.741 164.451,220.707 164.452,214.907 166.410 M115.926 166.667 C 114.312 168.280,115.368 171.785,117.500 171.895 C 119.986 172.022,121.481 170.842,121.481 168.753 C 121.481 166.180,117.797 164.796,115.926 166.667 M215.591 175.229 C 212.206 175.621,212.454 175.256,212.930 179.137 C 213.447 183.353,213.448 191.652,212.931 194.061 C 212.321 196.905,211.945 197.129,208.026 196.979 L 204.692 196.852 203.789 199.560 C 202.734 202.722,202.684 202.620,205.449 202.921 C 216.726 204.151,220.680 198.924,220.266 183.333 C 220.063 175.709,219.919 174.786,218.942 174.863 C 218.607 174.889,217.099 175.054,215.591 175.229 M107.037 226.456 L 107.037 240.370 110.556 240.370 L 114.074 240.370 114.074 237.256 L 114.074 234.143 116.166 234.016 L 118.259 233.889 120.518 237.123 L 122.778 240.357 126.574 240.363 C 131.149 240.372,131.105 240.564,127.593 235.926 C 124.355 231.650,124.493 232.112,126.038 230.755 C 131.244 226.184,130.721 216.974,125.077 213.847 L 123.148 212.778 115.093 212.659 L 107.037 212.541 107.037 226.456 M157.407 226.481 L 157.407 240.370 160.926 240.370 L 164.444 240.370 164.444 235.789 L 164.444 231.208 165.799 230.988 C 167.572 230.700,167.317 230.438,170.430 235.743 L 173.147 240.370 176.944 240.370 C 181.583 240.370,181.570 240.855,177.109 233.946 L 173.477 228.321 174.653 226.660 C 175.737 225.131,180.000 214.336,180.000 213.122 C 180.000 212.701,179.288 212.593,176.512 212.593 L 173.023 212.593 172.198 215.093 C 169.470 223.358,168.950 224.156,166.019 224.590 L 164.444 224.824 164.444 218.708 L 164.444 212.593 160.926 212.593 L 157.407 212.593 157.407 226.481 M120.761 218.900 C 125.051 221.196,122.155 227.423,116.529 227.999 L 114.074 228.250 114.074 223.384 L 114.074 218.519 117.061 218.519 C 118.704 218.519,120.369 218.690,120.761 218.900 M137.222 219.071 C 137.019 219.139,136.394 219.296,135.833 219.419 C 134.839 219.638,134.815 219.706,134.815 222.272 L 134.815 224.901 135.833 224.649 C 139.182 223.820,143.631 223.967,144.603 224.940 C 146.366 226.702,145.966 227.037,142.103 227.037 C 136.084 227.037,133.334 229.128,133.334 233.704 C 133.334 239.455,139.878 241.965,149.345 239.845 C 153.089 239.007,152.837 239.634,152.570 231.795 C 152.259 222.663,151.262 220.529,146.710 219.265 C 145.492 218.927,138.107 218.776,137.222 219.071 M186.481 219.071 C 186.278 219.139,185.653 219.296,185.093 219.419 C 184.098 219.638,184.074 219.706,184.074 222.272 L 184.074 224.901 185.093 224.649 C 188.441 223.820,192.890 223.967,193.863 224.940 C 195.625 226.702,195.226 227.037,191.363 227.037 C 185.344 227.037,182.594 229.128,182.594 233.704 C 182.594 239.455,189.137 241.965,198.604 239.845 C 202.348 239.007,202.097 239.634,201.830 231.795 C 201.519 222.663,200.521 220.529,195.969 219.265 C 194.752 218.927,187.366 218.776,186.481 219.071 M205.926 222.020 L 205.926 224.793 210.593 224.896 L 215.259 225.000 211.145 229.630 C 205.953 235.471,204.844 237.608,205.939 239.654 C 206.302 240.333,206.806 240.370,215.569 240.370 L 224.815 240.370 224.815 237.593 L 224.815 234.815 219.802 234.815 C 213.847 234.815,213.882 235.347,219.425 229.147 C 223.944 224.094,224.527 223.133,224.372 220.998 L 224.259 219.444 215.093 219.345 L 205.926 219.246 205.926 222.020 M145.612 233.364 C 145.769 235.665,145.882 235.556,143.354 235.556 C 140.045 235.556,138.624 233.968,140.370 232.222 C 140.944 231.649,141.605 231.481,143.298 231.481 L 145.484 231.481 145.612 233.364 M194.872 233.364 C 195.028 235.665,195.141 235.556,192.613 235.556 C 189.304 235.556,187.883 233.968,189.630 232.222 C 190.203 231.649,190.864 231.481,192.557 231.481 L 194.743 231.481 194.872 233.364 " stroke="none" fill="#0494fc" fill-rule="evenodd"></path><path id="path1" d="" stroke="none" fill="#0894fc" fill-rule="evenodd"></path><path id="path2" d="" stroke="none" fill="#0894fc" fill-rule="evenodd"></path><path id="path3" d="" stroke="none" fill="#0894fc" fill-rule="evenodd"></path><path id="path4" d="" stroke="none" fill="#0894fc" fill-rule="evenodd"></path></g></svg>